<svg width="23" height="22" viewBox="0 0 23 22" fill="none" xmlns="http://www.w3.org/2000/svg">
<path fill-rule="evenodd" clip-rule="evenodd" d="M10.8103 1.05867C10.9986 1.0019 11.1995 1.00193 11.3878 1.05875L19.0007 3.356C19.423 3.48341 19.7119 3.87235 19.7119 4.31337V9.00276C19.7119 14.4063 16.3633 19.2263 11.3648 20.9467C11.1909 21.0066 11.0019 21.0066 10.8279 20.9468C5.82812 19.2264 2.47852 14.4053 2.47852 9.00056V4.3134C2.47852 3.87229 2.76754 3.48328 3.18988 3.35596L10.8103 1.05867ZM4.12852 4.79634V9.00056C4.12852 13.6303 6.93611 17.7295 11.0963 19.29C15.2552 17.7295 18.0619 13.6314 18.0619 9.00276V4.79617L11.0988 2.69503L4.12852 4.79634Z" fill="white"/>
<path fill-rule="evenodd" clip-rule="evenodd" d="M12.6085 13.0218C12.0315 13.4005 11.3411 13.6208 10.5993 13.6208C8.57424 13.6208 6.93262 11.9792 6.93262 9.95414C6.93262 7.9291 8.57424 6.28748 10.5993 6.28748C12.6243 6.28748 14.266 7.9291 14.266 9.95414C14.266 10.7404 14.0185 11.4689 13.5972 12.0659L15.1279 13.5966L14.1556 14.5689L12.6085 13.0218ZM12.891 9.95414C12.891 11.2198 11.8649 12.2458 10.5993 12.2458C9.33363 12.2458 8.30762 11.2198 8.30762 9.95414C8.30762 8.68849 9.33363 7.66248 10.5993 7.66248C11.8649 7.66248 12.891 8.68849 12.891 9.95414Z" fill="white"/>
</svg>
